<svg width="311" height="114" viewBox="0 0 311 114" fill="none" xmlns="http://www.w3.org/2000/svg">
<path d="M303.47 113.234C301.894 113.234 300.569 112.906 299.496 112.249C298.445 111.592 297.635 110.694 297.066 109.556C296.519 108.417 296.223 107.147 296.179 105.746C296.157 105.418 296.146 104.958 296.146 104.367C296.146 103.776 296.157 103.316 296.179 102.987C296.223 101.564 296.519 100.294 297.066 99.1776C297.635 98.0391 298.445 97.1414 299.496 96.4845C300.569 95.8277 301.894 95.4993 303.47 95.4993C305.047 95.4993 306.36 95.8277 307.411 96.4845C308.484 97.1414 309.294 98.0391 309.842 99.1776C310.411 100.294 310.718 101.564 310.761 102.987C310.783 103.316 310.794 103.776 310.794 104.367C310.794 104.958 310.783 105.418 310.761 105.746C310.718 107.147 310.411 108.417 309.842 109.556C309.294 110.694 308.484 111.592 307.411 112.249C306.36 112.906 305.047 113.234 303.47 113.234ZM303.47 111.329C305.003 111.329 306.251 110.837 307.214 109.851C308.178 108.866 308.692 107.443 308.758 105.582C308.78 105.253 308.791 104.848 308.791 104.367C308.791 103.885 308.78 103.48 308.758 103.152C308.692 101.269 308.178 99.8454 307.214 98.882C306.251 97.8968 305.003 97.4041 303.47 97.4041C301.938 97.4041 300.69 97.8968 299.726 98.882C298.763 99.8454 298.248 101.269 298.183 103.152C298.161 103.48 298.15 103.885 298.15 104.367C298.15 104.848 298.161 105.253 298.183 105.582C298.248 107.443 298.763 108.866 299.726 109.851C300.69 110.837 301.938 111.329 303.47 111.329Z" fill="#0086A9"/>
<path d="M290.379 112.906C290.16 112.906 289.985 112.84 289.853 112.709C289.722 112.577 289.656 112.402 289.656 112.183V96.5502C289.656 96.3313 289.722 96.1561 289.853 96.0248C289.985 95.8934 290.16 95.8277 290.379 95.8277H290.937C291.156 95.8277 291.331 95.8934 291.463 96.0248C291.594 96.1561 291.66 96.3313 291.66 96.5502V112.183C291.66 112.402 291.594 112.577 291.463 112.709C291.331 112.84 291.156 112.906 290.937 112.906H290.379ZM290.017 92.3136C289.799 92.3136 289.623 92.2479 289.492 92.1165C289.361 91.9851 289.295 91.81 289.295 91.591V90.343C289.295 90.1241 289.361 89.9489 289.492 89.8175C289.623 89.6643 289.799 89.5876 290.017 89.5876H291.265C291.484 89.5876 291.66 89.6643 291.791 89.8175C291.944 89.9489 292.021 90.1241 292.021 90.343V91.591C292.021 91.81 291.944 91.9851 291.791 92.1165C291.66 92.2479 291.484 92.3136 291.265 92.3136H290.017Z" fill="#0086A9"/>
<path d="M269.798 112.906C269.579 112.906 269.404 112.84 269.272 112.709C269.141 112.577 269.075 112.402 269.075 112.183V90.6714C269.075 90.4305 269.141 90.2444 269.272 90.1131C269.404 89.9817 269.579 89.916 269.798 89.916H277.45C279.749 89.916 281.577 90.4634 282.935 91.5581C284.314 92.6529 285.004 94.3169 285.004 96.5502C285.004 98.3018 284.566 99.7031 283.69 100.754C282.814 101.805 281.599 102.517 280.045 102.889L285.332 111.888C285.398 112.019 285.431 112.139 285.431 112.249C285.431 112.424 285.365 112.577 285.234 112.709C285.102 112.84 284.949 112.906 284.774 112.906H284.38C284.029 112.906 283.767 112.818 283.592 112.643C283.416 112.446 283.263 112.238 283.132 112.019L277.91 103.184H271.144V112.183C271.144 112.402 271.079 112.577 270.947 112.709C270.816 112.84 270.63 112.906 270.389 112.906H269.798ZM271.144 101.214H277.286C279.191 101.214 280.603 100.831 281.522 100.064C282.464 99.2761 282.935 98.1047 282.935 96.5502C282.935 94.9956 282.464 93.8352 281.522 93.0689C280.603 92.2807 279.191 91.8866 277.286 91.8866H271.144V101.214Z" fill="#0086A9"/>
<path d="M253.425 104.005C253.206 104.005 253.031 103.94 252.899 103.808C252.768 103.677 252.702 103.502 252.702 103.283V102.823C252.702 102.604 252.768 102.429 252.899 102.298C253.031 102.166 253.206 102.101 253.425 102.101H263.113C263.332 102.101 263.507 102.166 263.639 102.298C263.77 102.429 263.836 102.604 263.836 102.823V103.283C263.836 103.502 263.77 103.677 263.639 103.808C263.507 103.94 263.332 104.005 263.113 104.005H253.425Z" fill="#0086A9"/>
<path d="M240.263 113.234C238.271 113.234 236.64 112.851 235.37 112.085C234.122 111.296 233.191 110.235 232.578 108.899C231.965 107.563 231.626 106.042 231.56 104.334C231.538 103.436 231.527 102.473 231.527 101.444C231.527 100.415 231.538 99.4294 231.56 98.4879C231.626 96.7801 231.965 95.2584 232.578 93.9228C233.191 92.5654 234.122 91.5035 235.37 90.7371C236.64 89.9708 238.271 89.5876 240.263 89.5876C241.818 89.5876 243.143 89.8066 244.237 90.2445C245.332 90.6824 246.219 91.2626 246.898 91.9851C247.598 92.6858 248.113 93.4521 248.441 94.2841C248.791 95.0942 248.989 95.8934 249.032 96.6816C249.054 96.8787 248.989 97.0429 248.835 97.1742C248.704 97.2837 248.54 97.3385 248.343 97.3385H247.686C247.511 97.3385 247.357 97.2947 247.226 97.2071C247.095 97.0976 247.007 96.9115 246.963 96.6488C246.547 94.7001 245.759 93.3645 244.599 92.642C243.46 91.9195 242.015 91.5582 240.263 91.5582C238.271 91.5582 236.684 92.1275 235.501 93.266C234.341 94.3826 233.717 96.178 233.629 98.6521C233.564 100.448 233.564 102.287 233.629 104.17C233.717 106.644 234.341 108.45 235.501 109.589C236.684 110.705 238.271 111.264 240.263 111.264C242.015 111.264 243.46 110.902 244.599 110.18C245.759 109.457 246.547 108.122 246.963 106.173C247.007 105.91 247.095 105.735 247.226 105.648C247.357 105.538 247.511 105.483 247.686 105.483H248.343C248.54 105.483 248.704 105.549 248.835 105.68C248.989 105.79 249.054 105.943 249.032 106.14C248.989 106.928 248.791 107.739 248.441 108.571C248.113 109.381 247.598 110.147 246.898 110.87C246.219 111.57 245.332 112.139 244.237 112.577C243.143 113.015 241.818 113.234 240.263 113.234Z" fill="#0086A9"/>
<path d="M218.049 113.234C216.275 113.234 214.753 112.906 213.483 112.249C212.235 111.592 211.272 110.585 210.593 109.227C209.915 107.87 209.575 106.129 209.575 104.005V90.6714C209.575 90.4305 209.641 90.2444 209.772 90.1131C209.904 89.9817 210.079 89.916 210.298 89.916H210.889C211.13 89.916 211.316 89.9817 211.447 90.1131C211.579 90.2444 211.644 90.4305 211.644 90.6714V104.104C211.644 106.556 212.214 108.362 213.352 109.523C214.513 110.683 216.078 111.264 218.049 111.264C219.997 111.264 221.541 110.683 222.679 109.523C223.84 108.362 224.42 106.556 224.42 104.104V90.6714C224.42 90.4305 224.486 90.2444 224.617 90.1131C224.77 89.9817 224.956 89.916 225.175 89.916H225.766C225.985 89.916 226.161 89.9817 226.292 90.1131C226.423 90.2444 226.489 90.4305 226.489 90.6714V104.005C226.489 106.129 226.15 107.87 225.471 109.227C224.814 110.585 223.862 111.592 222.614 112.249C221.366 112.906 219.844 113.234 218.049 113.234Z" fill="#0086A9"/>
<path d="M189.873 112.906C189.654 112.906 189.479 112.84 189.347 112.709C189.216 112.577 189.15 112.402 189.15 112.183V90.6714C189.15 90.4305 189.216 90.2444 189.347 90.1131C189.479 89.9817 189.654 89.916 189.873 89.916H197.854C199.386 89.916 200.711 90.1788 201.828 90.7042C202.966 91.2078 203.842 91.9632 204.455 92.9704C205.09 93.9775 205.407 95.2255 205.407 96.7144C205.407 98.2032 205.09 99.4513 204.455 100.458C203.842 101.466 202.966 102.232 201.828 102.757C200.711 103.261 199.386 103.513 197.854 103.513H191.219V112.183C191.219 112.402 191.154 112.577 191.022 112.709C190.891 112.84 190.705 112.906 190.464 112.906H189.873ZM191.219 101.542H197.689C199.594 101.542 201.006 101.126 201.926 100.294C202.868 99.4622 203.338 98.2689 203.338 96.7144C203.338 95.1599 202.868 93.9666 201.926 93.1346C201.006 92.3026 199.594 91.8866 197.689 91.8866H191.219V101.542Z" fill="#0086A9"/>
<path d="M296.285 75.3626C295.261 75.3626 294.461 75.0746 293.885 74.4986C293.373 73.9866 292.957 73.5387 292.637 73.1546L289.373 68.8346C286.877 69.6666 284.029 70.0826 280.829 70.0826C274.941 70.0826 269.821 69.1227 265.469 67.2027C261.181 65.2827 257.789 62.4027 255.293 58.5627C252.861 54.6587 251.549 49.7947 251.357 43.9706C251.293 41.2187 251.261 38.4667 251.261 35.7146C251.261 32.9626 251.293 30.1786 251.357 27.3626C251.549 21.6026 252.893 16.7706 255.389 12.8666C257.885 8.89865 261.309 5.92265 265.661 3.93865C270.013 1.95465 275.069 0.962646 280.829 0.962646C286.653 0.962646 291.741 1.95465 296.093 3.93865C300.445 5.92265 303.869 8.89865 306.365 12.8666C308.861 16.7706 310.205 21.6026 310.397 27.3626C310.525 30.1786 310.589 32.9626 310.589 35.7146C310.589 38.4667 310.525 41.2187 310.397 43.9706C310.013 51.9067 307.709 58.0506 303.485 62.4026L310.493 72.3867C310.557 72.4507 310.621 72.5787 310.685 72.7707C310.749 72.9627 310.781 73.1546 310.781 73.3466C310.845 73.8587 310.685 74.3066 310.301 74.6907C309.917 75.1386 309.437 75.3626 308.861 75.3626H296.285ZM280.829 56.2587C284.221 56.2587 286.973 55.2346 289.085 53.1866C291.261 51.1386 292.413 47.8747 292.541 43.3947C292.669 40.5787 292.733 37.9227 292.733 35.4267C292.733 32.9307 292.669 30.3386 292.541 27.6507C292.477 24.6426 291.933 22.2106 290.909 20.3546C289.885 18.4346 288.509 17.0266 286.781 16.1306C285.053 15.2346 283.069 14.7866 280.829 14.7866C278.653 14.7866 276.701 15.2346 274.973 16.1306C273.245 17.0266 271.869 18.4346 270.845 20.3546C269.821 22.2106 269.277 24.6426 269.213 27.6507C269.149 30.3386 269.117 32.9307 269.117 35.4267C269.117 37.9227 269.149 40.5787 269.213 43.3947C269.341 47.8747 270.461 51.1386 272.573 53.1866C274.749 55.2346 277.501 56.2587 280.829 56.2587Z" fill="#FFBC08"/>
<path d="M218.453 70.0827C210.901 70.0827 204.885 68.0347 200.405 63.9387C195.925 59.8427 193.589 53.7627 193.397 45.6987C193.397 45.2507 193.397 44.6747 193.397 43.9707C193.397 43.2667 193.397 42.7227 193.397 42.3387C193.589 37.2827 194.709 32.9627 196.757 29.3787C198.869 25.7307 201.749 22.9787 205.397 21.1227C209.109 19.2027 213.429 18.2427 218.357 18.2427C223.989 18.2427 228.629 19.3627 232.277 21.6027C235.989 23.8427 238.773 26.8827 240.629 30.7227C242.485 34.5627 243.413 38.9467 243.413 43.8747V46.1787C243.413 46.8827 243.157 47.4587 242.645 47.9067C242.197 48.3547 241.653 48.5787 241.013 48.5787H210.293C210.293 48.6427 210.293 48.7387 210.293 48.8667C210.293 48.9947 210.293 49.1227 210.293 49.2507C210.357 51.1067 210.677 52.8027 211.253 54.3387C211.829 55.8747 212.725 57.0907 213.941 57.9867C215.157 58.8827 216.629 59.3307 218.357 59.3307C219.637 59.3307 220.693 59.1387 221.525 58.7547C222.421 58.3067 223.157 57.8267 223.733 57.3147C224.309 56.7387 224.757 56.2587 225.077 55.8747C225.653 55.2347 226.101 54.8507 226.421 54.7227C226.805 54.5307 227.381 54.4347 228.149 54.4347H240.053C240.693 54.4347 241.205 54.6267 241.589 55.0107C242.037 55.3307 242.229 55.8107 242.165 56.4507C242.101 57.5387 241.557 58.8507 240.533 60.3867C239.509 61.9227 238.005 63.4587 236.021 64.9947C234.101 66.4667 231.669 67.6827 228.725 68.6427C225.781 69.6027 222.357 70.0827 218.453 70.0827ZM210.293 39.0747H226.517V38.8827C226.517 36.8347 226.197 35.0427 225.557 33.5067C224.981 31.9707 224.053 30.7867 222.773 29.9547C221.557 29.1227 220.085 28.7067 218.357 28.7067C216.629 28.7067 215.157 29.1227 213.941 29.9547C212.789 30.7867 211.893 31.9707 211.253 33.5067C210.613 35.0427 210.293 36.8347 210.293 38.8827V39.0747Z" fill="#0086A9"/>
<path d="M161.622 69.1226C160.918 69.1226 160.342 68.8986 159.894 68.4506C159.446 68.0026 159.222 67.4266 159.222 66.7226V16.9946H142.134C141.43 16.9946 140.854 16.7706 140.406 16.3226C139.958 15.8106 139.734 15.2346 139.734 14.5946V4.32261C139.734 3.61861 139.958 3.04261 140.406 2.59461C140.854 2.14661 141.43 1.92261 142.134 1.92261H193.782C194.486 1.92261 195.062 2.14661 195.51 2.59461C195.958 3.04261 196.182 3.61861 196.182 4.32261V14.5946C196.182 15.2346 195.958 15.8106 195.51 16.3226C195.062 16.7706 194.486 16.9946 193.782 16.9946H176.694V66.7226C176.694 67.4266 176.47 68.0026 176.022 68.4506C175.574 68.8986 174.998 69.1226 174.294 69.1226H161.622Z" fill="#0086A9"/>
<path d="M115.713 69.1227C115.009 69.1227 114.432 68.9655 113.984 68.6511C113.536 68.3367 113.312 67.9325 113.312 67.4384V23.6483C113.312 23.1543 113.536 22.7501 113.984 22.4357C114.432 22.1213 115.009 21.9641 115.713 21.9641H128.576C129.28 21.9641 129.856 22.1213 130.304 22.4357C130.752 22.7501 130.977 23.1543 130.977 23.6483V67.4384C130.977 67.9325 130.752 68.3367 130.304 68.6511C129.856 68.9655 129.28 69.1227 128.576 69.1227H115.713Z" fill="#FFBC08"/>
<path d="M46.7125 69.1226C46.0085 69.1226 45.4325 68.8986 44.9845 68.4506C44.5365 68.0026 44.3125 67.4266 44.3125 66.7226V4.32261C44.3125 3.61861 44.5365 3.04261 44.9845 2.59461C45.4325 2.14661 46.0085 1.92261 46.7125 1.92261H56.8885C57.9765 1.92261 58.7445 2.17861 59.1925 2.69061C59.7045 3.13861 60.0245 3.49061 60.1525 3.74661L83.5765 40.7066V4.32261C83.5765 3.61861 83.8005 3.04261 84.2485 2.59461C84.6965 2.14661 85.2725 1.92261 85.9765 1.92261H97.4965C98.2005 1.92261 98.7765 2.14661 99.2245 2.59461C99.6725 3.04261 99.8965 3.61861 99.8965 4.32261V66.7226C99.8965 67.3626 99.6725 67.9386 99.2245 68.4506C98.7765 68.8986 98.2005 69.1226 97.4965 69.1226H87.2245C86.2005 69.1226 85.4325 68.8666 84.9205 68.3546C84.4725 67.8426 84.1845 67.4906 84.0565 67.2986L60.6325 31.7786V66.7226C60.6325 67.4266 60.4085 68.0026 59.9605 68.4506C59.5125 68.8986 58.9365 69.1226 58.2325 69.1226H46.7125Z" fill="#0086A9"/>
<rect x="113.219" y="1.92261" width="17.6641" height="17.6641" rx="2" fill="#0086A9"/>
<path d="M17.336 2.99204C17.6817 2.33442 18.3634 1.92261 19.1063 1.92261H32.2515C33.756 1.92261 34.7218 3.5214 34.0218 4.85318L18.3895 34.592C18.0833 35.1746 18.0833 35.8706 18.3895 36.4532L34.0218 66.1921C34.7218 67.5238 33.756 69.1226 32.2515 69.1226H19.1063C18.3634 69.1226 17.6817 68.7108 17.336 68.0532L0.725479 36.4532C0.419243 35.8706 0.419244 35.1746 0.72548 34.592L17.336 2.99204Z" fill="#FFBC08"/>
</svg>
